<?xml version="1.0" encoding="UTF-8" standalone="no"?>
<!-- Created with Inkscape (http://www.inkscape.org/) -->

<svg
   xmlns:dc="http://purl.org/dc/elements/1.1/"
   xmlns:cc="http://creativecommons.org/ns#"
   xmlns:rdf="http://www.w3.org/1999/02/22-rdf-syntax-ns#"
   xmlns:svg="http://www.w3.org/2000/svg"
   xmlns="http://www.w3.org/2000/svg"
   xmlns:sodipodi="http://sodipodi.sourceforge.net/DTD/sodipodi-0.dtd"
   xmlns:inkscape="http://www.inkscape.org/namespaces/inkscape"
   id="svg2"
   version="1.1"
   inkscape:version="0.47 r22583"
   width="630.32875"
   height="123.47725"
   xml:space="preserve"
   sodipodi:docname="FAU.pdf"><metadata
     id="metadata8"><rdf:RDF><cc:Work
         rdf:about=""><dc:format>image/svg+xml</dc:format><dc:type
           rdf:resource="http://purl.org/dc/dcmitype/StillImage" /><dc:title></dc:title></cc:Work></rdf:RDF></metadata><defs
     id="defs6"><inkscape:perspective
       sodipodi:type="inkscape:persp3d"
       inkscape:vp_x="0 : 0.5 : 1"
       inkscape:vp_y="0 : 1000 : 0"
       inkscape:vp_z="1 : 0.5 : 1"
       inkscape:persp3d-origin="0.5 : 0.33333333 : 1"
       id="perspective10" /><clipPath
       clipPathUnits="userSpaceOnUse"
       id="clipPath20"><path
         d="M 0,0 505,0 505,99 0,99 0,0 z"
         id="path22" /></clipPath></defs><sodipodi:namedview
     pagecolor="#ffffff"
     bordercolor="#666666"
     borderopacity="1"
     objecttolerance="10"
     gridtolerance="10"
     guidetolerance="10"
     inkscape:pageopacity="0"
     inkscape:pageshadow="2"
     inkscape:window-width="1010"
     inkscape:window-height="757"
     id="namedview4"
     showgrid="false"
     inkscape:zoom="0.86304173"
     inkscape:cx="311.59753"
     inkscape:cy="10.581223"
     inkscape:window-x="0"
     inkscape:window-y="0"
     inkscape:window-maximized="0"
     inkscape:current-layer="g12" /><g
     id="g12"
     inkscape:groupmode="layer"
     inkscape:label="FAU"
     transform="matrix(1.25,0,0,-1.25,0,123.47725)"><g
       id="g3154"><path
         d="m 220.32,7.293799 -59.578,0 c 3.66,-3.067 7.899,-5.367 12.383,-6.965 l 34.781,0 c 4.5,1.598 8.746,3.898 12.414,6.965"
         style="fill:#004171;fill-opacity:1;fill-rule:nonzero;stroke:none"
         id="path30" /><path
         d="m 54.52,10.492799 25.824,0 0.043,0.129 -0.075,0 2.141,6.84 -25.363,0 -2.57,-6.969 z"
         style="fill:#004171;fill-opacity:1;fill-rule:nonzero;stroke:none"
         id="path32" /><path
         d="m 53.34,7.293799 -2.574,-6.965 26.308,0 2.242,6.965 -25.976,0 z"
         style="fill:#004171;fill-opacity:1;fill-rule:nonzero;stroke:none"
         id="path34" /><path
         d="m 0,7.293799 24.656,0 0,-6.969 -24.656,0 0,6.969 z"
         style="fill:#004171;fill-opacity:1;fill-rule:nonzero;stroke:none"
         id="path36" /><path
         d="m 0,17.461799 24.656,0 0,-6.969 -24.656,0 0,6.969 z"
         style="fill:#004171;fill-opacity:1;fill-rule:nonzero;stroke:none"
         id="path38" /><path
         d="m 0,27.629799 24.656,0 0,-6.969 -24.656,0 0,6.969 z"
         style="fill:#004171;fill-opacity:1;fill-rule:nonzero;stroke:none"
         id="path40" /><path
         d="m 0,37.789799 24.656,0 0,-6.965 -24.656,0 0,6.965 z"
         style="fill:#004171;fill-opacity:1;fill-rule:nonzero;stroke:none"
         id="path42" /><path
         d="m 0,68.285799 24.656,0 0,-6.969 -24.656,0 0,6.969 z"
         style="fill:#004171;fill-opacity:1;fill-rule:nonzero;stroke:none"
         id="path44" /><path
         d="m 0,78.453799 24.656,0 0,-6.969 -24.656,0 0,6.969 z"
         style="fill:#004171;fill-opacity:1;fill-rule:nonzero;stroke:none"
         id="path46" /><path
         d="m 0,98.781799 75.355,0 0,-6.969 -75.355,0 0,6.969 z"
         style="fill:#004171;fill-opacity:1;fill-rule:nonzero;stroke:none"
         id="path48" /><path
         d="m 0,88.617799 75.355,0 0,-6.965 -75.355,0 0,6.965 z"
         style="fill:#004171;fill-opacity:1;fill-rule:nonzero;stroke:none"
         id="path50" /><path
         d="m 98.102,68.285799 -22.235,0 -2.574,-6.965 22.723,0 2.086,6.965 z"
         style="fill:#004171;fill-opacity:1;fill-rule:nonzero;stroke:none"
         id="path52" /><path
         d="m 84.559,91.816799 30.695,0 -2.633,6.965 -25.488,0 -2.574,-6.965 z"
         style="fill:#004171;fill-opacity:1;fill-rule:nonzero;stroke:none"
         id="path54" /><path
         d="m 80.805,81.652799 38.289,0 -2.633,6.965 -33.086,0 -2.57,-6.965 z"
         style="fill:#004171;fill-opacity:1;fill-rule:nonzero;stroke:none"
         id="path56" /><path
         d="m 101.246,71.484799 21.688,0 -2.633,6.969 -40.68,0 -2.574,-6.969 22.015,0 0.954,3.195 0.273,0 0.957,-3.195 z"
         style="fill:#004171;fill-opacity:1;fill-rule:nonzero;stroke:none"
         id="path58" /><path
         d="m 104.289,61.320799 22.484,0 -2.632,6.965 -21.934,0 2.082,-6.965 z"
         style="fill:#004171;fill-opacity:1;fill-rule:nonzero;stroke:none"
         id="path60" /><path
         d="m 107.332,51.156799 23.281,0 -2.629,6.965 -22.738,0 2.086,-6.965 z"
         style="fill:#004171;fill-opacity:1;fill-rule:nonzero;stroke:none"
         id="path62" /><path
         d="m 110.375,40.988799 24.078,0 -2.633,6.969 -23.531,0 2.086,-6.969 z"
         style="fill:#004171;fill-opacity:1;fill-rule:nonzero;stroke:none"
         id="path64" /><path
         d="m 62.027,30.824799 76.266,0 -2.629,6.965 -71.059,0 -2.578,-6.965 z"
         style="fill:#004171;fill-opacity:1;fill-rule:nonzero;stroke:none"
         id="path66" /><path
         d="m 58.273,20.660799 83.864,0 -2.633,6.969 -78.656,0 -2.575,-6.969 z"
         style="fill:#004171;fill-opacity:1;fill-rule:nonzero;stroke:none"
         id="path68" /><path
         d="m 120.176,10.492799 25.804,0 -2.636,6.969 -25.442,0 2.274,-6.969 z"
         style="fill:#004171;fill-opacity:1;fill-rule:nonzero;stroke:none"
         id="path70" /><path
         d="m 149.816,0.328799 -2.632,6.965 -26.055,0 2.238,-6.965 26.449,0 z"
         style="fill:#004171;fill-opacity:1;fill-rule:nonzero;stroke:none"
         id="path72" /><path
         d="m 148.773,98.781799 24.656,0 0,-6.969 -24.656,0 0,6.969 z"
         style="fill:#004171;fill-opacity:1;fill-rule:nonzero;stroke:none"
         id="path74" /><path
         d="m 148.773,88.617799 24.656,0 0,-6.965 -24.656,0 0,6.965 z"
         style="fill:#004171;fill-opacity:1;fill-rule:nonzero;stroke:none"
         id="path76" /><path
         d="m 148.773,78.453799 24.656,0 0,-6.969 -24.656,0 0,6.969 z"
         style="fill:#004171;fill-opacity:1;fill-rule:nonzero;stroke:none"
         id="path78" /><path
         d="m 148.773,68.285799 24.656,0 0,-6.965 -24.656,0 0,6.965 z"
         style="fill:#004171;fill-opacity:1;fill-rule:nonzero;stroke:none"
         id="path80" /><path
         d="m 148.773,58.121799 24.656,0 0,-6.965 -24.656,0 0,6.965 z"
         style="fill:#004171;fill-opacity:1;fill-rule:nonzero;stroke:none"
         id="path82" /><path
         d="m 148.773,47.953799 24.656,0 0,-6.965 -24.656,0 0,6.965 z"
         style="fill:#004171;fill-opacity:1;fill-rule:nonzero;stroke:none"
         id="path84" /><path
         d="m 148.973,30.824799 24.922,0 c -0.313,1.801 -0.465,3.73 -0.465,5.758 l 0,1.207 -24.657,0 0,-3.281 c 0,-1.282 0.098,-2.485 0.2,-3.684"
         style="fill:#004171;fill-opacity:1;fill-rule:nonzero;stroke:none"
         id="path86" /><path
         d="m 151.176,20.660799 28.121,0 c -2.192,1.754 -3.676,4.133 -4.609,6.969 l -25.313,0 c 0.406,-2.489 0.988,-4.828 1.801,-6.969"
         style="fill:#004171;fill-opacity:1;fill-rule:nonzero;stroke:none"
         id="path88" /><path
         d="m 228.504,17.457799 -75.93,0 c 1.324,-2.602 2.957,-4.91 4.813,-6.965 l 66.301,0 c 1.855,2.055 3.492,4.363 4.816,6.965"
         style="fill:#004171;fill-opacity:1;fill-rule:nonzero;stroke:none"
         id="path90" /><path
         d="m 231.703,27.625799 -25.316,0 c -0.934,-2.832 -2.434,-5.211 -4.633,-6.965 l 28.144,0 c 0.813,2.141 1.399,4.48 1.805,6.965"
         style="fill:#004171;fill-opacity:1;fill-rule:nonzero;stroke:none"
         id="path92" /><path
         d="m 207.648,98.781799 24.656,0 0,-6.969 -24.656,0 0,6.969 z"
         style="fill:#004171;fill-opacity:1;fill-rule:nonzero;stroke:none"
         id="path94" /><path
         d="m 207.648,88.617799 24.656,0 0,-6.965 -24.656,0 0,6.965 z"
         style="fill:#004171;fill-opacity:1;fill-rule:nonzero;stroke:none"
         id="path96" /><path
         d="m 207.648,78.453799 24.656,0 0,-6.969 -24.656,0 0,6.969 z"
         style="fill:#004171;fill-opacity:1;fill-rule:nonzero;stroke:none"
         id="path98" /><path
         d="m 207.648,68.285799 24.656,0 0,-6.965 -24.656,0 0,6.965 z"
         style="fill:#004171;fill-opacity:1;fill-rule:nonzero;stroke:none"
         id="path100" /><path
         d="m 207.648,58.121799 24.656,0 0,-6.965 -24.656,0 0,6.965 z"
         style="fill:#004171;fill-opacity:1;fill-rule:nonzero;stroke:none"
         id="path102" /><path
         d="m 207.648,47.953799 24.656,0 0,-6.965 -24.656,0 0,6.965 z"
         style="fill:#004171;fill-opacity:1;fill-rule:nonzero;stroke:none"
         id="path104" /><path
         d="m 232.305,34.504799 0,3.285 -24.657,0 0,-1.207 c 0,-2.028 -0.152,-3.957 -0.464,-5.758 l 24.921,0 c 0.098,1.199 0.2,2.402 0.2,3.68"
         style="fill:#004171;fill-opacity:1;fill-rule:nonzero;stroke:none"
         id="path106" /><path
         d="m 0,47.926799 0,-6.965 89.93,0 2.086,6.965 -92.016,0 z"
         style="fill:#004171;fill-opacity:1;fill-rule:nonzero;stroke:none"
         id="path108" /><path
         d="m 0,58.148799 0,-6.965 92.973,0 2.086,6.965 -95.059,0 z"
         style="fill:#004171;fill-opacity:1;fill-rule:nonzero;stroke:none"
         id="path110" /></g><path
       id="path112"
       style="fill:#004171;fill-opacity:1;fill-rule:nonzero;stroke:none"
       d="m 262.316,14.605799 0,-2.64 -7.546,0 0,-3.063 6.925,0 0,-2.441 -6.925,0 0,-3.5 7.703,0 0,-2.641 -10.844,0 0,14.285 10.687,0 z m 9.661,-6.465 c 0.718,0 1.261,0.164 1.617,0.485 0.363,0.32 0.543,0.836 0.543,1.558 0,0.696 -0.18,1.2 -0.543,1.512 -0.356,0.313 -0.899,0.469 -1.617,0.469 l -3.442,0 0,-4.024 3.442,0 z m 1.121,6.465 c 0.64,0 1.214,-0.101 1.73,-0.308 0.512,-0.207 0.953,-0.489 1.32,-0.852 0.368,-0.359 0.649,-0.777 0.84,-1.25 0.192,-0.473 0.289,-0.984 0.289,-1.531 0,-0.84 -0.175,-1.567 -0.527,-2.18 -0.352,-0.613 -0.934,-1.082 -1.73,-1.402 l 0,-0.039 c 0.382,-0.11 0.703,-0.27 0.957,-0.489 0.253,-0.222 0.461,-0.48 0.621,-0.785 0.16,-0.297 0.277,-0.629 0.351,-0.988 0.074,-0.359 0.121,-0.719 0.149,-1.078 0.015,-0.231 0.027,-0.496 0.043,-0.805 0.011,-0.305 0.035,-0.617 0.07,-0.937 0.031,-0.325 0.086,-0.625 0.156,-0.914 0.074,-0.286 0.184,-0.528 0.332,-0.727 l -3.144,0 c -0.172,0.453 -0.278,0.992 -0.317,1.617 -0.043,0.629 -0.101,1.227 -0.183,1.805 -0.106,0.746 -0.332,1.293 -0.68,1.641 -0.344,0.343 -0.914,0.519 -1.699,0.519 l -3.141,0 0,-5.582 -3.144,0 0,14.285 7.707,0 z m 10.16,0 0,-11.644 6.965,0 0,-2.641 -10.106,0 0,14.285 3.141,0 z m 17.074,-8.762 -1.805,5.243 -0.039,0 -1.863,-5.243 3.707,0 z m -0.184,8.762 5.344,-14.285 -3.262,0 -1.078,3.18 -5.347,0 -1.117,-3.18 -3.165,0 5.403,14.285 3.222,0 z m 10.247,0 5.964,-9.582 0.039,0 0,9.582 2.942,0 0,-14.285 -3.141,0 -5.945,9.563 -0.039,0 0,-9.563 -2.942,0 0,14.285 3.122,0 z m 20.652,-14.176 c -0.68,-0.289 -1.367,-0.429 -2.063,-0.429 -1.093,0 -2.074,0.187 -2.949,0.57 -0.875,0.379 -1.613,0.902 -2.211,1.57 -0.601,0.664 -1.062,1.45 -1.383,2.352 -0.32,0.898 -0.48,1.871 -0.48,2.91 0,1.07 0.16,2.059 0.48,2.973 0.321,0.914 0.782,1.711 1.383,2.39 0.598,0.68 1.336,1.215 2.211,1.602 0.875,0.387 1.856,0.578 2.949,0.578 0.735,0 1.446,-0.109 2.133,-0.328 0.688,-0.219 1.309,-0.543 1.86,-0.973 0.554,-0.425 1.011,-0.953 1.371,-1.578 0.359,-0.629 0.582,-1.347 0.66,-2.16 l -3,0 c -0.188,0.797 -0.547,1.398 -1.082,1.801 -0.531,0.398 -1.18,0.597 -1.942,0.597 -0.707,0 -1.308,-0.136 -1.8,-0.41 -0.493,-0.273 -0.895,-0.64 -1.2,-1.097 -0.308,-0.461 -0.531,-0.989 -0.672,-1.571 -0.14,-0.59 -0.21,-1.195 -0.21,-1.824 0,-0.598 0.07,-1.183 0.21,-1.75 0.141,-0.566 0.364,-1.078 0.672,-1.531 0.305,-0.453 0.707,-0.82 1.2,-1.09 0.492,-0.277 1.093,-0.41 1.8,-0.41 1.043,0 1.848,0.262 2.414,0.789 0.567,0.527 0.895,1.293 0.989,2.293 l -3.164,0 0,2.34 6.007,0 0,-7.723 -2.003,0 -0.321,1.617 c -0.558,-0.718 -1.179,-1.222 -1.859,-1.508 m 17.949,14.176 0,-2.64 -7.543,0 0,-3.063 6.922,0 0,-2.441 -6.922,0 0,-3.5 7.703,0 0,-2.641 -10.844,0 0,14.285 10.684,0 z m 6.402,0 5.961,-9.582 0.039,0 0,9.582 2.942,0 0,-14.285 -3.141,0 -5.945,9.563 -0.039,0 0,-9.563 -2.942,0 0,14.285 3.125,0 z m 18.532,-10.047 -6.024,0 0,2.446 6.024,0 0,-2.446 z m 6.734,10.047 5.961,-9.582 0.039,0 0,9.582 2.945,0 0,-14.285 -3.144,0 -5.942,9.563 -0.043,0 0,-9.563 -2.941,0 0,14.285 3.125,0 z m 17.766,1.602 -2.703,0 0,2.344 2.703,0 0,-2.344 z m 4.121,0 -2.703,0 0,2.344 2.703,0 0,-2.344 z m 1.062,-14.797 c -1.082,-0.941 -2.578,-1.41 -4.484,-1.41 -1.934,0 -3.434,0.465 -4.492,1.398 -1.059,0.938 -1.59,2.375 -1.59,4.324 l 0,8.883 3.141,0 0,-8.883 c 0,-0.386 0.035,-0.765 0.101,-1.14 0.066,-0.375 0.207,-0.703 0.418,-0.992 0.215,-0.289 0.512,-0.52 0.891,-0.7 0.379,-0.179 0.89,-0.269 1.531,-0.269 1.121,0 1.894,0.25 2.32,0.75 0.43,0.5 0.641,1.285 0.641,2.351 l 0,8.883 3.14,0 0,-8.883 c 0,-1.933 -0.539,-3.375 -1.617,-4.312 m 11.43,6.73 c 0.723,0 1.262,0.164 1.621,0.485 0.363,0.32 0.543,0.836 0.543,1.558 0,0.696 -0.18,1.2 -0.543,1.512 -0.359,0.313 -0.898,0.469 -1.621,0.469 l -3.441,0 0,-4.024 3.441,0 z m 1.121,6.465 c 0.641,0 1.219,-0.101 1.731,-0.308 0.515,-0.207 0.953,-0.489 1.32,-0.852 0.371,-0.359 0.648,-0.777 0.84,-1.25 0.195,-0.473 0.293,-0.984 0.293,-1.531 0,-0.84 -0.18,-1.567 -0.532,-2.18 -0.351,-0.613 -0.929,-1.082 -1.73,-1.402 l 0,-0.039 c 0.387,-0.11 0.707,-0.27 0.961,-0.489 0.254,-0.222 0.457,-0.48 0.617,-0.785 0.164,-0.297 0.281,-0.629 0.352,-0.988 0.074,-0.359 0.125,-0.719 0.152,-1.078 0.012,-0.231 0.027,-0.496 0.039,-0.805 0.012,-0.305 0.039,-0.617 0.07,-0.937 0.032,-0.325 0.086,-0.625 0.161,-0.914 0.07,-0.286 0.183,-0.528 0.332,-0.727 l -3.145,0 c -0.172,0.453 -0.281,0.992 -0.32,1.617 -0.039,0.629 -0.098,1.227 -0.18,1.805 -0.105,0.746 -0.332,1.293 -0.68,1.641 -0.347,0.343 -0.914,0.519 -1.699,0.519 l -3.144,0 0,-5.582 -3.141,0 0,14.285 7.703,0 z m 10.543,0 5.965,-9.582 0.039,0 0,9.582 2.941,0 0,-14.285 -3.14,0 -5.942,9.563 -0.043,0 0,-9.563 -2.941,0 0,14.285 3.121,0 z m 18.875,-5.781 c 0.563,0 1.02,0.133 1.379,0.402 0.359,0.266 0.543,0.7 0.543,1.297 0,0.336 -0.063,0.606 -0.184,0.82 -0.117,0.215 -0.277,0.379 -0.476,0.504 -0.203,0.118 -0.434,0.204 -0.692,0.246 -0.261,0.051 -0.531,0.071 -0.812,0.071 l -2.942,0 0,-3.34 3.184,0 z m 0.402,5.781 c 0.676,0 1.297,-0.058 1.86,-0.179 0.558,-0.118 1.039,-0.317 1.437,-0.59 0.403,-0.274 0.711,-0.637 0.934,-1.09 0.219,-0.453 0.328,-1.016 0.328,-1.68 0,-0.723 -0.16,-1.32 -0.488,-1.801 -0.328,-0.48 -0.813,-0.875 -1.453,-1.183 0.882,-0.254 1.539,-0.696 1.972,-1.328 0.434,-0.637 0.653,-1.399 0.653,-2.293 0,-0.719 -0.141,-1.344 -0.422,-1.871 -0.282,-0.528 -0.657,-0.957 -1.129,-1.289 -0.477,-0.336 -1.016,-0.582 -1.625,-0.743 -0.606,-0.16 -1.231,-0.238 -1.867,-0.238 l -6.926,0 0,14.285 6.726,0 z m -0.222,-11.844 c 0.304,0 0.601,0.028 0.879,0.09 0.281,0.059 0.527,0.157 0.742,0.301 0.211,0.141 0.383,0.328 0.508,0.567 0.129,0.242 0.191,0.546 0.191,0.921 0,0.735 -0.207,1.258 -0.621,1.571 -0.414,0.316 -0.961,0.468 -1.641,0.468 l -3.422,0 0,-3.918 3.364,0 z m 18.769,11.844 0,-2.64 -7.547,0 0,-3.063 6.926,0 0,-2.441 -6.926,0 0,-3.5 7.707,0 0,-2.641 -10.847,0 0,14.285 10.687,0 z m 9.86,-6.465 c 0.722,0 1.261,0.164 1.621,0.485 0.359,0.32 0.543,0.836 0.543,1.558 0,0.696 -0.184,1.2 -0.543,1.512 -0.36,0.313 -0.899,0.469 -1.621,0.469 l -3.442,0 0,-4.024 3.442,0 z m 1.121,6.465 c 0.64,0 1.218,-0.101 1.73,-0.308 0.516,-0.207 0.957,-0.489 1.32,-0.852 0.368,-0.359 0.649,-0.777 0.844,-1.25 0.192,-0.473 0.289,-0.984 0.289,-1.531 0,-0.84 -0.175,-1.567 -0.531,-2.18 -0.352,-0.613 -0.93,-1.082 -1.73,-1.402 l 0,-0.039 c 0.386,-0.11 0.707,-0.27 0.961,-0.489 0.253,-0.222 0.46,-0.48 0.617,-0.785 0.16,-0.297 0.277,-0.629 0.351,-0.988 0.075,-0.359 0.125,-0.719 0.153,-1.078 0.011,-0.231 0.023,-0.496 0.039,-0.805 0.011,-0.305 0.035,-0.617 0.07,-0.937 0.035,-0.325 0.086,-0.625 0.16,-0.914 0.074,-0.286 0.18,-0.528 0.328,-0.727 l -3.14,0 c -0.172,0.453 -0.278,0.992 -0.321,1.617 -0.039,0.629 -0.097,1.227 -0.179,1.805 -0.106,0.746 -0.332,1.293 -0.68,1.641 -0.348,0.343 -0.914,0.519 -1.703,0.519 l -3.141,0 0,-5.582 -3.14,0 0,14.285 7.703,0 z m 15.613,-14.176 c -0.68,-0.289 -1.367,-0.429 -2.059,-0.429 -1.093,0 -2.078,0.187 -2.953,0.57 -0.875,0.379 -1.609,0.902 -2.211,1.57 -0.601,0.664 -1.058,1.45 -1.379,2.352 -0.32,0.898 -0.48,1.871 -0.48,2.91 0,1.07 0.16,2.059 0.48,2.973 0.321,0.914 0.778,1.711 1.379,2.39 0.602,0.68 1.336,1.215 2.211,1.602 0.875,0.387 1.86,0.578 2.953,0.578 0.735,0 1.442,-0.109 2.133,-0.328 0.684,-0.219 1.305,-0.543 1.86,-0.973 0.554,-0.425 1.011,-0.953 1.371,-1.578 0.359,-0.629 0.578,-1.347 0.66,-2.16 l -3.004,0 c -0.184,0.797 -0.547,1.398 -1.078,1.801 -0.535,0.398 -1.18,0.597 -1.942,0.597 -0.707,0 -1.308,-0.136 -1.8,-0.41 -0.496,-0.273 -0.895,-0.64 -1.2,-1.097 -0.308,-0.461 -0.535,-0.989 -0.671,-1.571 -0.141,-0.59 -0.211,-1.195 -0.211,-1.824 0,-0.598 0.07,-1.183 0.211,-1.75 0.136,-0.566 0.363,-1.078 0.671,-1.531 0.305,-0.453 0.704,-0.82 1.2,-1.09 0.492,-0.277 1.093,-0.41 1.8,-0.41 1.043,0 1.844,0.262 2.411,0.789 0.566,0.527 0.898,1.293 0.992,2.293 l -3.164,0 0,2.34 6.004,0 0,-7.723 -2,0 -0.321,1.617 c -0.562,-0.718 -1.179,-1.222 -1.863,-1.508" /><path
       id="path114"
       style="fill:#004171;fill-opacity:1;fill-rule:nonzero;stroke:none"
       d="m 262.234,23.023799 c -1.078,-0.941 -2.574,-1.41 -4.484,-1.41 -1.93,0 -3.43,0.465 -4.492,1.398 -1.059,0.934 -1.59,2.375 -1.59,4.325 l 0,8.883 3.144,0 0,-8.883 c 0,-0.387 0.032,-0.77 0.098,-1.145 0.067,-0.371 0.207,-0.703 0.422,-0.988 0.211,-0.289 0.508,-0.52 0.891,-0.699 0.379,-0.184 0.89,-0.274 1.527,-0.274 1.125,0 1.898,0.254 2.324,0.75 0.426,0.504 0.641,1.289 0.641,2.356 l 0,8.883 3.14,0 0,-8.883 c 0,-1.934 -0.539,-3.375 -1.621,-4.313 m 8.286,13.196 5.964,-9.586 0.039,0 0,9.586 2.942,0 0,-14.286 -3.141,0 -5.945,9.563 -0.039,0 0,-9.563 -2.942,0 0,14.286 3.122,0 z m 15.589,-14.286 -3.144,0 0,14.286 3.144,0 0,-14.286 z m 6.891,0 -4.625,14.286 3.223,0 3.183,-10.047 0.039,0 3.219,10.047 3.246,0 -4.742,-14.286 -3.543,0 z m 21.289,14.286 0,-2.641 -7.543,0 0,-3.063 6.922,0 0,-2.441 -6.922,0 0,-3.504 7.707,0 0,-2.637 -10.848,0 0,14.286 10.684,0 z m 9.664,-6.465 c 0.719,0 1.258,0.16 1.621,0.48 0.36,0.324 0.539,0.84 0.539,1.563 0,0.691 -0.179,1.195 -0.539,1.511 -0.363,0.313 -0.902,0.469 -1.621,0.469 l -3.445,0 0,-4.023 3.445,0 z m 1.121,6.465 c 0.637,0 1.215,-0.102 1.731,-0.309 0.511,-0.207 0.953,-0.492 1.32,-0.852 0.367,-0.359 0.648,-0.777 0.84,-1.25 0.191,-0.476 0.289,-0.984 0.289,-1.531 0,-0.84 -0.176,-1.566 -0.527,-2.18 -0.356,-0.613 -0.934,-1.082 -1.731,-1.402 l 0,-0.039 c 0.383,-0.109 0.707,-0.273 0.957,-0.492 0.254,-0.219 0.461,-0.481 0.621,-0.781 0.16,-0.301 0.278,-0.629 0.352,-0.989 0.07,-0.363 0.121,-0.722 0.148,-1.082 0.012,-0.226 0.028,-0.492 0.043,-0.801 0.012,-0.304 0.035,-0.617 0.067,-0.941 0.035,-0.32 0.089,-0.621 0.16,-0.91 0.074,-0.285 0.183,-0.527 0.332,-0.727 l -3.145,0 c -0.172,0.45 -0.277,0.993 -0.32,1.621 -0.039,0.625 -0.098,1.223 -0.176,1.797 -0.109,0.75 -0.336,1.297 -0.68,1.641 -0.351,0.348 -0.917,0.523 -1.703,0.523 l -3.144,0 0,-5.582 -3.141,0 0,14.286 7.707,0 z m 9.723,-10.766 c 0.176,-0.332 0.402,-0.602 0.691,-0.813 0.289,-0.203 0.625,-0.359 1.012,-0.457 0.387,-0.101 0.785,-0.152 1.199,-0.152 0.281,0 0.578,0.023 0.903,0.07 0.316,0.047 0.617,0.137 0.898,0.27 0.281,0.133 0.516,0.32 0.699,0.551 0.188,0.234 0.281,0.531 0.281,0.894 0,0.383 -0.121,0.699 -0.367,0.938 -0.25,0.238 -0.574,0.441 -0.972,0.601 -0.399,0.16 -0.856,0.301 -1.36,0.422 -0.508,0.117 -1.023,0.25 -1.543,0.399 -0.535,0.132 -1.054,0.296 -1.562,0.488 -0.504,0.195 -0.957,0.445 -1.36,0.75 -0.402,0.308 -0.722,0.691 -0.968,1.152 -0.25,0.461 -0.371,1.016 -0.371,1.672 0,0.734 0.156,1.367 0.472,1.91 0.313,0.539 0.723,0.992 1.227,1.352 0.508,0.359 1.082,0.625 1.722,0.801 0.641,0.171 1.282,0.257 1.922,0.257 0.746,0 1.461,-0.082 2.149,-0.25 0.691,-0.164 1.301,-0.437 1.832,-0.808 0.535,-0.375 0.957,-0.852 1.273,-1.43 0.313,-0.582 0.469,-1.285 0.469,-2.113 l -3.043,0 c -0.023,0.426 -0.117,0.781 -0.27,1.062 -0.152,0.278 -0.359,0.5 -0.609,0.66 -0.254,0.157 -0.547,0.274 -0.871,0.34 -0.328,0.067 -0.684,0.098 -1.07,0.098 -0.254,0 -0.508,-0.027 -0.762,-0.078 -0.254,-0.055 -0.48,-0.149 -0.688,-0.281 -0.207,-0.133 -0.378,-0.301 -0.511,-0.5 -0.133,-0.2 -0.199,-0.454 -0.199,-0.762 0,-0.281 0.05,-0.504 0.156,-0.68 0.109,-0.172 0.32,-0.332 0.633,-0.48 0.312,-0.145 0.746,-0.293 1.3,-0.438 0.551,-0.148 1.278,-0.336 2.172,-0.562 0.266,-0.051 0.637,-0.149 1.11,-0.289 0.472,-0.141 0.945,-0.364 1.41,-0.672 0.469,-0.305 0.871,-0.719 1.211,-1.231 0.34,-0.511 0.511,-1.168 0.511,-1.972 0,-0.653 -0.125,-1.258 -0.378,-1.821 -0.254,-0.558 -0.633,-1.043 -1.133,-1.449 -0.5,-0.406 -1.121,-0.723 -1.86,-0.953 -0.742,-0.223 -1.601,-0.336 -2.574,-0.336 -0.785,0 -1.551,0.094 -2.289,0.289 -0.742,0.191 -1.394,0.496 -1.961,0.91 -0.566,0.414 -1.016,0.938 -1.351,1.582 -0.332,0.637 -0.493,1.399 -0.481,2.278 l 3.043,0 c 0,-0.481 0.086,-0.887 0.258,-1.219 m 14.609,-3.52 -3.14,0 0,14.286 3.14,0 0,-14.286 z m 2.52,11.645 0,2.641 11.707,0 0,-2.641 -4.281,0 0,-11.645 -3.141,0 0,11.645 -4.285,0 z m 17.75,4.242 -2.703,0 0,2.344 2.703,0 0,-2.344 z m 4.121,0 -2.699,0 0,2.344 2.699,0 0,-2.344 z m -1.578,-10.367 -1.801,5.246 -0.039,0 -1.863,-5.246 3.703,0 z m -0.18,8.766 5.344,-14.286 -3.266,0 -1.078,3.18 -5.344,0 -1.121,-3.18 -3.16,0 5.402,14.286 3.223,0 z m 5.043,-2.641 0,2.641 11.707,0 0,-2.641 -4.281,0 0,-11.645 -3.145,0 0,11.645 -4.281,0 z" /><path
       id="path116"
       style="fill:#004171;fill-opacity:1;fill-rule:nonzero;stroke:none"
       d="m 261.676,58.097799 0,-2.64 -6.906,0 0,-3.301 5.984,0 0,-2.441 -5.984,0 0,-5.907 -3.141,0 0,14.289 10.047,0 z m 9.136,-6.464 c 0.719,0 1.262,0.16 1.622,0.484 0.359,0.316 0.539,0.836 0.539,1.559 0,0.695 -0.18,1.199 -0.539,1.511 -0.36,0.313 -0.903,0.469 -1.622,0.469 l -3.445,0 0,-4.023 3.445,0 z m 1.118,6.464 c 0.64,0 1.218,-0.101 1.73,-0.308 0.516,-0.207 0.957,-0.492 1.32,-0.852 0.372,-0.359 0.649,-0.777 0.844,-1.25 0.192,-0.472 0.289,-0.984 0.289,-1.531 0,-0.84 -0.175,-1.566 -0.531,-2.18 -0.352,-0.613 -0.926,-1.082 -1.73,-1.402 l 0,-0.039 c 0.386,-0.109 0.707,-0.27 0.96,-0.492 0.254,-0.219 0.461,-0.481 0.622,-0.782 0.16,-0.296 0.277,-0.628 0.351,-0.988 0.07,-0.359 0.121,-0.722 0.149,-1.082 0.011,-0.226 0.027,-0.496 0.039,-0.801 0.015,-0.304 0.039,-0.621 0.07,-0.937 0.035,-0.324 0.086,-0.625 0.16,-0.914 0.074,-0.285 0.184,-0.528 0.332,-0.731 l -3.14,0 c -0.176,0.457 -0.282,0.996 -0.321,1.621 -0.039,0.629 -0.101,1.227 -0.183,1.801 -0.106,0.746 -0.332,1.297 -0.68,1.641 -0.348,0.348 -0.914,0.523 -1.699,0.523 l -3.145,0 0,-5.586 -3.14,0 0,14.289 7.703,0 z m 10.793,-14.289 -3.141,0 0,14.289 3.141,0 0,-14.289 z m 14.289,14.289 0,-2.64 -7.543,0 0,-3.063 6.922,0 0,-2.441 -6.922,0 0,-3.5 7.703,0 0,-2.645 -10.848,0 0,14.289 10.688,0 z m 9.023,-11.644 c 0.453,0 0.891,0.07 1.317,0.219 0.429,0.144 0.808,0.39 1.14,0.73 0.332,0.34 0.602,0.785 0.801,1.332 0.199,0.547 0.301,1.211 0.301,2 0,0.719 -0.071,1.371 -0.207,1.949 -0.141,0.582 -0.375,1.078 -0.692,1.493 -0.32,0.414 -0.746,0.73 -1.269,0.953 -0.531,0.218 -1.18,0.328 -1.953,0.328 l -2.243,0 0,-9.004 2.805,0 z m 0.219,11.644 c 0.918,0 1.777,-0.144 2.57,-0.437 0.793,-0.293 1.481,-0.734 2.059,-1.324 0.582,-0.586 1.035,-1.321 1.363,-2.2 0.328,-0.882 0.492,-1.914 0.492,-3.101 0,-1.043 -0.136,-2.004 -0.402,-2.883 -0.266,-0.879 -0.668,-1.641 -1.211,-2.281 -0.539,-0.641 -1.215,-1.145 -2.02,-1.512 -0.808,-0.367 -1.761,-0.551 -2.851,-0.551 l -6.164,0 0,14.289 6.164,0 z m 15.613,-6.464 c 0.723,0 1.262,0.16 1.625,0.484 0.36,0.316 0.539,0.836 0.539,1.559 0,0.695 -0.179,1.199 -0.539,1.511 -0.363,0.313 -0.902,0.469 -1.625,0.469 l -3.441,0 0,-4.023 3.441,0 z m 1.125,6.464 c 0.637,0 1.215,-0.101 1.731,-0.308 0.511,-0.207 0.953,-0.492 1.32,-0.852 0.367,-0.359 0.645,-0.777 0.84,-1.25 0.195,-0.472 0.289,-0.984 0.289,-1.531 0,-0.84 -0.176,-1.566 -0.531,-2.18 -0.352,-0.613 -0.93,-1.082 -1.731,-1.402 l 0,-0.039 c 0.387,-0.109 0.707,-0.27 0.961,-0.492 0.254,-0.219 0.461,-0.481 0.621,-0.782 0.16,-0.296 0.278,-0.628 0.352,-0.988 0.074,-0.359 0.121,-0.722 0.148,-1.082 0.012,-0.226 0.028,-0.496 0.039,-0.801 0.016,-0.304 0.039,-0.621 0.071,-0.937 0.035,-0.324 0.086,-0.625 0.16,-0.914 0.074,-0.285 0.183,-0.528 0.332,-0.731 l -3.141,0 c -0.176,0.457 -0.281,0.996 -0.324,1.621 -0.039,0.629 -0.098,1.227 -0.18,1.801 -0.105,0.746 -0.332,1.297 -0.679,1.641 -0.348,0.348 -0.915,0.523 -1.7,0.523 l -3.144,0 0,-5.586 -3.141,0 0,14.289 7.707,0 z m 10.488,-14.289 -3.14,0 0,14.289 3.14,0 0,-14.289 z m 12.543,10.481 c -0.183,0.297 -0.418,0.562 -0.699,0.785 -0.281,0.23 -0.597,0.406 -0.949,0.531 -0.355,0.129 -0.723,0.192 -1.109,0.192 -0.707,0 -1.309,-0.137 -1.801,-0.411 -0.496,-0.273 -0.895,-0.64 -1.203,-1.097 -0.309,-0.461 -0.532,-0.988 -0.672,-1.574 -0.137,-0.586 -0.207,-1.196 -0.207,-1.821 0,-0.601 0.07,-1.183 0.207,-1.75 0.14,-0.566 0.363,-1.078 0.672,-1.531 0.308,-0.453 0.707,-0.816 1.203,-1.09 0.492,-0.273 1.094,-0.414 1.801,-0.414 0.957,0 1.711,0.293 2.246,0.883 0.543,0.586 0.875,1.359 0.996,2.32 l 3.039,0 c -0.078,-0.894 -0.285,-1.699 -0.621,-2.422 -0.332,-0.718 -0.774,-1.332 -1.321,-1.839 -0.546,-0.508 -1.187,-0.895 -1.921,-1.161 -0.731,-0.265 -1.539,-0.398 -2.418,-0.398 -1.094,0 -2.082,0.187 -2.954,0.57 -0.874,0.379 -1.613,0.903 -2.21,1.571 -0.602,0.664 -1.063,1.449 -1.383,2.351 -0.321,0.899 -0.481,1.871 -0.481,2.91 0,1.067 0.16,2.059 0.481,2.973 0.32,0.914 0.781,1.711 1.383,2.391 0.597,0.679 1.336,1.214 2.21,1.601 0.872,0.387 1.86,0.578 2.954,0.578 0.785,0 1.527,-0.109 2.23,-0.34 0.699,-0.226 1.324,-0.554 1.879,-0.988 0.555,-0.433 1.012,-0.973 1.371,-1.613 0.359,-0.641 0.586,-1.371 0.68,-2.199 l -3.039,0 c -0.055,0.359 -0.176,0.687 -0.364,0.992 m 9.547,3.808 0,-5.48 5.782,0 0,5.48 3.14,0 0,-14.289 -3.14,0 0,6.164 -5.782,0 0,-6.164 -3.144,0 0,14.289 3.144,0 z m 18.512,-10.046 -6.023,0 0,2.445 6.023,0 0,-2.445 z m 10.313,1.281 -1.801,5.246 -0.039,0 -1.86,-5.246 3.7,0 z m -0.18,8.765 5.344,-14.289 -3.262,0 -1.082,3.184 -5.344,0 -1.117,-3.184 -3.164,0 5.402,14.289 3.223,0 z m 10.652,0 0,-11.644 6.965,0 0,-2.645 -10.109,0 0,14.289 3.144,0 z m 20.164,0 0,-2.64 -7.547,0 0,-3.063 6.926,0 0,-2.441 -6.926,0 0,-3.5 7.707,0 0,-2.645 -10.847,0 0,14.289 10.687,0 z m 2.418,0 3.645,0 2.801,-4.562 2.902,4.562 3.441,0 -4.582,-6.824 4.981,-7.465 -3.739,0 -3.125,4.946 -3.179,-4.946 -3.524,0 4.985,7.485 -4.606,6.804 z m 23.156,-8.765 -1.8,5.246 -0.043,0 -1.86,-5.246 3.703,0 z m -0.183,8.765 5.344,-14.289 -3.262,0 -1.078,3.184 -5.344,0 -1.121,-3.184 -3.16,0 5.402,14.289 3.219,0 z m 10.336,0 5.961,-9.586 0.043,0 0,9.586 2.937,0 0,-14.289 -3.14,0 -5.942,9.567 -0.043,0 0,-9.567 -2.937,0 0,14.289 3.121,0 z m 18.25,-11.644 c 0.453,0 0.894,0.07 1.32,0.219 0.426,0.144 0.805,0.39 1.141,0.73 0.332,0.34 0.597,0.785 0.801,1.332 0.199,0.547 0.3,1.211 0.3,2 0,0.719 -0.07,1.371 -0.211,1.949 -0.14,0.582 -0.371,1.078 -0.691,1.493 -0.32,0.414 -0.742,0.73 -1.27,0.953 -0.527,0.218 -1.179,0.328 -1.953,0.328 l -2.242,0 0,-9.004 2.805,0 z m 0.219,11.644 c 0.921,0 1.777,-0.144 2.57,-0.437 0.793,-0.293 1.484,-0.734 2.062,-1.324 0.579,-0.586 1.036,-1.321 1.36,-2.2 0.328,-0.882 0.492,-1.914 0.492,-3.101 0,-1.043 -0.133,-2.004 -0.402,-2.883 -0.266,-0.879 -0.668,-1.641 -1.207,-2.281 -0.543,-0.641 -1.219,-1.145 -2.024,-1.512 -0.808,-0.367 -1.758,-0.551 -2.851,-0.551 l -6.165,0 0,14.289 6.165,0 z m 19.75,0 0,-2.64 -7.543,0 0,-3.063 6.921,0 0,-2.441 -6.921,0 0,-3.5 7.703,0 0,-2.645 -10.844,0 0,14.289 10.684,0 z m 9.562,-6.464 c 0.723,0 1.262,0.16 1.621,0.484 0.36,0.316 0.539,0.836 0.539,1.559 0,0.695 -0.179,1.199 -0.539,1.511 -0.359,0.313 -0.898,0.469 -1.621,0.469 l -3.441,0 0,-4.023 3.441,0 z m 1.121,6.464 c 0.641,0 1.219,-0.101 1.731,-0.308 0.515,-0.207 0.953,-0.492 1.32,-0.852 0.367,-0.359 0.648,-0.777 0.84,-1.25 0.195,-0.472 0.293,-0.984 0.293,-1.531 0,-0.84 -0.18,-1.566 -0.532,-2.18 -0.355,-0.613 -0.929,-1.082 -1.73,-1.402 l 0,-0.039 c 0.387,-0.109 0.707,-0.27 0.961,-0.492 0.25,-0.219 0.457,-0.481 0.621,-0.782 0.16,-0.296 0.274,-0.628 0.348,-0.988 0.074,-0.359 0.125,-0.722 0.148,-1.082 0.016,-0.226 0.028,-0.496 0.043,-0.801 0.012,-0.304 0.035,-0.621 0.07,-0.937 0.032,-0.324 0.086,-0.625 0.161,-0.914 0.074,-0.285 0.183,-0.528 0.328,-0.731 l -3.141,0 c -0.172,0.457 -0.281,0.996 -0.32,1.621 -0.039,0.629 -0.102,1.227 -0.18,1.801 -0.105,0.746 -0.336,1.297 -0.68,1.641 -0.347,0.348 -0.914,0.523 -1.703,0.523 l -3.14,0 0,-5.586 -3.141,0 0,14.289 7.703,0 z" /></g></svg>