<?xml version="1.0" encoding="UTF-8" standalone="no"?>
<!-- Created with Inkscape (http://www.inkscape.org/) -->

<svg
   xmlns:dc="http://purl.org/dc/elements/1.1/"
   xmlns:cc="http://creativecommons.org/ns#"
   xmlns:rdf="http://www.w3.org/1999/02/22-rdf-syntax-ns#"
   xmlns:svg="http://www.w3.org/2000/svg"
   xmlns="http://www.w3.org/2000/svg"
   xmlns:sodipodi="http://sodipodi.sourceforge.net/DTD/sodipodi-0.dtd"
   xmlns:inkscape="http://www.inkscape.org/namespaces/inkscape"
   id="svg2"
   version="1.1"
   inkscape:version="0.47 r22583"
   width="290.38126"
   height="123.07125"
   xml:space="preserve"
   sodipodi:docname="FAU.svg"><metadata
     id="metadata8"><rdf:RDF><cc:Work
         rdf:about=""><dc:format>image/svg+xml</dc:format><dc:type
           rdf:resource="http://purl.org/dc/dcmitype/StillImage" /><dc:title></dc:title></cc:Work></rdf:RDF></metadata><defs
     id="defs6"><inkscape:perspective
       sodipodi:type="inkscape:persp3d"
       inkscape:vp_x="0 : 0.5 : 1"
       inkscape:vp_y="0 : 1000 : 0"
       inkscape:vp_z="1 : 0.5 : 1"
       inkscape:persp3d-origin="0.5 : 0.33333333 : 1"
       id="perspective10" /><clipPath
       clipPathUnits="userSpaceOnUse"
       id="clipPath20"><path
         d="M 0,0 505,0 505,99 0,99 0,0 z"
         id="path22" /></clipPath></defs><sodipodi:namedview
     pagecolor="#ffffff"
     bordercolor="#666666"
     borderopacity="1"
     objecttolerance="10"
     gridtolerance="10"
     guidetolerance="10"
     inkscape:pageopacity="0"
     inkscape:pageshadow="2"
     inkscape:window-width="966"
     inkscape:window-height="736"
     id="namedview4"
     showgrid="false"
     inkscape:zoom="1.2205253"
     inkscape:cx="172.40868"
     inkscape:cy="44.267922"
     inkscape:window-x="-3"
     inkscape:window-y="0"
     inkscape:window-maximized="0"
     inkscape:current-layer="g12" /><g
     id="g12"
     inkscape:groupmode="layer"
     inkscape:label="FAU"
     transform="matrix(1.25,0,0,-1.25,0,123.47725)"><g
       id="g3326"
       inkscape:export-xdpi="64.779999"
       inkscape:export-ydpi="64.779999"><path
         d="m 220.32,7.293799 -59.578,0 c 3.66,-3.067 7.899,-5.367 12.383,-6.965 l 34.781,0 c 4.5,1.598 8.746,3.898 12.414,6.965"
         style="fill:#004171;fill-opacity:1;fill-rule:nonzero;stroke:none"
         id="path30" /><path
         d="m 54.52,10.492799 25.824,0 0.043,0.129 -0.075,0 2.141,6.84 -25.363,0 -2.57,-6.969 z"
         style="fill:#004171;fill-opacity:1;fill-rule:nonzero;stroke:none"
         id="path32" /><path
         d="m 53.34,7.293799 -2.574,-6.965 26.308,0 2.242,6.965 -25.976,0 z"
         style="fill:#004171;fill-opacity:1;fill-rule:nonzero;stroke:none"
         id="path34" /><path
         d="m 0,7.293799 24.656,0 0,-6.969 -24.656,0 0,6.969 z"
         style="fill:#004171;fill-opacity:1;fill-rule:nonzero;stroke:none"
         id="path36" /><path
         d="m 0,17.461799 24.656,0 0,-6.969 -24.656,0 0,6.969 z"
         style="fill:#004171;fill-opacity:1;fill-rule:nonzero;stroke:none"
         id="path38" /><path
         d="m 0,27.629799 24.656,0 0,-6.969 -24.656,0 0,6.969 z"
         style="fill:#004171;fill-opacity:1;fill-rule:nonzero;stroke:none"
         id="path40" /><path
         d="m 0,37.789799 24.656,0 0,-6.965 -24.656,0 0,6.965 z"
         style="fill:#004171;fill-opacity:1;fill-rule:nonzero;stroke:none"
         id="path42" /><path
         d="m 0,68.285799 24.656,0 0,-6.969 -24.656,0 0,6.969 z"
         style="fill:#004171;fill-opacity:1;fill-rule:nonzero;stroke:none"
         id="path44" /><path
         d="m 0,78.453799 24.656,0 0,-6.969 -24.656,0 0,6.969 z"
         style="fill:#004171;fill-opacity:1;fill-rule:nonzero;stroke:none"
         id="path46" /><path
         d="m 0,98.781799 75.355,0 0,-6.969 -75.355,0 0,6.969 z"
         style="fill:#004171;fill-opacity:1;fill-rule:nonzero;stroke:none"
         id="path48" /><path
         d="m 0,88.617799 75.355,0 0,-6.965 -75.355,0 0,6.965 z"
         style="fill:#004171;fill-opacity:1;fill-rule:nonzero;stroke:none"
         id="path50" /><path
         d="m 98.102,68.285799 -22.235,0 -2.574,-6.965 22.723,0 2.086,6.965 z"
         style="fill:#004171;fill-opacity:1;fill-rule:nonzero;stroke:none"
         id="path52" /><path
         d="m 84.559,91.816799 30.695,0 -2.633,6.965 -25.488,0 -2.574,-6.965 z"
         style="fill:#004171;fill-opacity:1;fill-rule:nonzero;stroke:none"
         id="path54" /><path
         d="m 80.805,81.652799 38.289,0 -2.633,6.965 -33.086,0 -2.57,-6.965 z"
         style="fill:#004171;fill-opacity:1;fill-rule:nonzero;stroke:none"
         id="path56" /><path
         d="m 101.246,71.484799 21.688,0 -2.633,6.969 -40.68,0 -2.574,-6.969 22.015,0 0.954,3.195 0.273,0 0.957,-3.195 z"
         style="fill:#004171;fill-opacity:1;fill-rule:nonzero;stroke:none"
         id="path58" /><path
         d="m 104.289,61.320799 22.484,0 -2.632,6.965 -21.934,0 2.082,-6.965 z"
         style="fill:#004171;fill-opacity:1;fill-rule:nonzero;stroke:none"
         id="path60" /><path
         d="m 107.332,51.156799 23.281,0 -2.629,6.965 -22.738,0 2.086,-6.965 z"
         style="fill:#004171;fill-opacity:1;fill-rule:nonzero;stroke:none"
         id="path62" /><path
         d="m 110.375,40.988799 24.078,0 -2.633,6.969 -23.531,0 2.086,-6.969 z"
         style="fill:#004171;fill-opacity:1;fill-rule:nonzero;stroke:none"
         id="path64" /><path
         d="m 62.027,30.824799 76.266,0 -2.629,6.965 -71.059,0 -2.578,-6.965 z"
         style="fill:#004171;fill-opacity:1;fill-rule:nonzero;stroke:none"
         id="path66" /><path
         d="m 58.273,20.660799 83.864,0 -2.633,6.969 -78.656,0 -2.575,-6.969 z"
         style="fill:#004171;fill-opacity:1;fill-rule:nonzero;stroke:none"
         id="path68" /><path
         d="m 120.176,10.492799 25.804,0 -2.636,6.969 -25.442,0 2.274,-6.969 z"
         style="fill:#004171;fill-opacity:1;fill-rule:nonzero;stroke:none"
         id="path70" /><path
         d="m 149.816,0.328799 -2.632,6.965 -26.055,0 2.238,-6.965 26.449,0 z"
         style="fill:#004171;fill-opacity:1;fill-rule:nonzero;stroke:none"
         id="path72" /><path
         d="m 148.773,98.781799 24.656,0 0,-6.969 -24.656,0 0,6.969 z"
         style="fill:#004171;fill-opacity:1;fill-rule:nonzero;stroke:none"
         id="path74" /><path
         d="m 148.773,88.617799 24.656,0 0,-6.965 -24.656,0 0,6.965 z"
         style="fill:#004171;fill-opacity:1;fill-rule:nonzero;stroke:none"
         id="path76" /><path
         d="m 148.773,78.453799 24.656,0 0,-6.969 -24.656,0 0,6.969 z"
         style="fill:#004171;fill-opacity:1;fill-rule:nonzero;stroke:none"
         id="path78" /><path
         d="m 148.773,68.285799 24.656,0 0,-6.965 -24.656,0 0,6.965 z"
         style="fill:#004171;fill-opacity:1;fill-rule:nonzero;stroke:none"
         id="path80" /><path
         d="m 148.773,58.121799 24.656,0 0,-6.965 -24.656,0 0,6.965 z"
         style="fill:#004171;fill-opacity:1;fill-rule:nonzero;stroke:none"
         id="path82" /><path
         d="m 148.773,47.953799 24.656,0 0,-6.965 -24.656,0 0,6.965 z"
         style="fill:#004171;fill-opacity:1;fill-rule:nonzero;stroke:none"
         id="path84" /><path
         d="m 148.973,30.824799 24.922,0 c -0.313,1.801 -0.465,3.73 -0.465,5.758 l 0,1.207 -24.657,0 0,-3.281 c 0,-1.282 0.098,-2.485 0.2,-3.684"
         style="fill:#004171;fill-opacity:1;fill-rule:nonzero;stroke:none"
         id="path86" /><path
         d="m 151.176,20.660799 28.121,0 c -2.192,1.754 -3.676,4.133 -4.609,6.969 l -25.313,0 c 0.406,-2.489 0.988,-4.828 1.801,-6.969"
         style="fill:#004171;fill-opacity:1;fill-rule:nonzero;stroke:none"
         id="path88" /><path
         d="m 228.504,17.457799 -75.93,0 c 1.324,-2.602 2.957,-4.91 4.813,-6.965 l 66.301,0 c 1.855,2.055 3.492,4.363 4.816,6.965"
         style="fill:#004171;fill-opacity:1;fill-rule:nonzero;stroke:none"
         id="path90" /><path
         d="m 231.703,27.625799 -25.316,0 c -0.934,-2.832 -2.434,-5.211 -4.633,-6.965 l 28.144,0 c 0.813,2.141 1.399,4.48 1.805,6.965"
         style="fill:#004171;fill-opacity:1;fill-rule:nonzero;stroke:none"
         id="path92" /><path
         d="m 207.648,98.781799 24.656,0 0,-6.969 -24.656,0 0,6.969 z"
         style="fill:#004171;fill-opacity:1;fill-rule:nonzero;stroke:none"
         id="path94" /><path
         d="m 207.648,88.617799 24.656,0 0,-6.965 -24.656,0 0,6.965 z"
         style="fill:#004171;fill-opacity:1;fill-rule:nonzero;stroke:none"
         id="path96" /><path
         d="m 207.648,78.453799 24.656,0 0,-6.969 -24.656,0 0,6.969 z"
         style="fill:#004171;fill-opacity:1;fill-rule:nonzero;stroke:none"
         id="path98" /><path
         d="m 207.648,68.285799 24.656,0 0,-6.965 -24.656,0 0,6.965 z"
         style="fill:#004171;fill-opacity:1;fill-rule:nonzero;stroke:none"
         id="path100" /><path
         d="m 207.648,58.121799 24.656,0 0,-6.965 -24.656,0 0,6.965 z"
         style="fill:#004171;fill-opacity:1;fill-rule:nonzero;stroke:none"
         id="path102" /><path
         d="m 207.648,47.953799 24.656,0 0,-6.965 -24.656,0 0,6.965 z"
         style="fill:#004171;fill-opacity:1;fill-rule:nonzero;stroke:none"
         id="path104" /><path
         d="m 232.305,34.504799 0,3.285 -24.657,0 0,-1.207 c 0,-2.028 -0.152,-3.957 -0.464,-5.758 l 24.921,0 c 0.098,1.199 0.2,2.402 0.2,3.68"
         style="fill:#004171;fill-opacity:1;fill-rule:nonzero;stroke:none"
         id="path106" /><path
         d="m 0,47.926799 0,-6.965 89.93,0 2.086,6.965 -92.016,0 z"
         style="fill:#004171;fill-opacity:1;fill-rule:nonzero;stroke:none"
         id="path108" /><path
         d="m 0,58.148799 0,-6.965 92.973,0 2.086,6.965 -95.059,0 z"
         style="fill:#004171;fill-opacity:1;fill-rule:nonzero;stroke:none"
         id="path110" /></g></g></svg>