<?xml version="1.0" encoding="UTF-8" standalone="no"?>
<!-- Created with Inkscape (http://www.inkscape.org/) -->
<svg
   xmlns:dc="http://purl.org/dc/elements/1.1/"
   xmlns:cc="http://creativecommons.org/ns#"
   xmlns:rdf="http://www.w3.org/1999/02/22-rdf-syntax-ns#"
   xmlns:svg="http://www.w3.org/2000/svg"
   xmlns="http://www.w3.org/2000/svg"
   xmlns:sodipodi="http://sodipodi.sourceforge.net/DTD/sodipodi-0.dtd"
   xmlns:inkscape="http://www.inkscape.org/namespaces/inkscape"
   width="254.53262"
   height="56.251141"
   id="svg3725"
   sodipodi:version="0.32"
   inkscape:version="0.46"
   version="1.0"
   sodipodi:docname="logo-tf.svg"
   inkscape:output_extension="org.inkscape.output.svg.inkscape">
  <defs
     id="defs3727" />
  <sodipodi:namedview
     id="base"
     pagecolor="#ffffff"
     bordercolor="#666666"
     borderopacity="1.0"
     gridtolerance="10000"
     guidetolerance="10"
     objecttolerance="10"
     inkscape:pageopacity="0.0"
     inkscape:pageshadow="2"
     inkscape:zoom="2.1883246"
     inkscape:cx="127.26631"
     inkscape:cy="28.12557"
     inkscape:document-units="px"
     inkscape:current-layer="layer1"
     showgrid="false"
     inkscape:window-width="645"
     inkscape:window-height="726"
     inkscape:window-x="15"
     inkscape:window-y="81" />
  <metadata
     id="metadata3730">
    <rdf:RDF>
      <cc:Work
         rdf:about="">
        <dc:format>image/svg+xml</dc:format>
        <dc:type
           rdf:resource="http://purl.org/dc/dcmitype/StillImage" />
      </cc:Work>
    </rdf:RDF>
  </metadata>
  <g
     inkscape:label="Layer 1"
     inkscape:groupmode="layer"
     id="layer1"
     transform="translate(-247.73368,-504.23661)">
    <g
       transform="matrix(0.5594554,0,0,0.5594554,229.5295,480.54222)"
       id="g3102"
       style="fill:#003366;fill-opacity:1">
      <path
         d="M 32.539117,43.117601 L 126.51912,43.117601 L 126.51912,68.781351 L 32.539117,68.781351 L 32.539117,43.117601 z"
         style="fill:#003366;fill-opacity:1;fill-rule:nonzero;stroke:none"
         id="path2628" />
      <path
         d="M 62.636617,72.290101 L 95.870367,72.290101 L 95.870367,138.2201 L 62.636617,138.2201 L 62.636617,72.290101 z"
         style="fill:#003366;fill-opacity:1;fill-rule:nonzero;stroke:none"
         id="path2630" />
      <path
         d="M 136.31287,142.89885 L 136.31287,43.117601 L 185.33662,93.235101 L 136.31287,142.89885"
         style="fill:#003366;fill-opacity:1;fill-rule:nonzero;stroke:none"
         id="path2632" />
      <path
         d="M 196.68412,68.781351 L 196.68412,43.117601 L 141.56662,43.117601 C 141.56662,43.117601 166.64412,68.751351 166.76912,68.751351 L 196.68412,68.781351"
         style="fill:#003366;fill-opacity:1;fill-rule:nonzero;stroke:none"
         id="path2634" />
      <path
         d="M 226.14912,138.2201 L 232.51537,138.2201 L 232.51537,120.12635 L 246.53162,120.12635 L 246.53162,114.75885 L 232.51537,114.75885 L 232.51537,103.70385 L 247.42537,103.70385 L 247.42537,98.345101 L 226.14912,98.345101 L 226.14912,138.2201"
         style="fill:#003366;fill-opacity:1;fill-rule:nonzero;stroke:none"
         id="path2636" />
      <path
         d="M 256.51912,123.3601 L 261.26912,103.70385 L 261.37912,103.70385 L 265.95662,123.3601 L 256.51912,123.3601 z M 246.13287,138.2201 L 252.77787,138.2201 L 255.34787,128.44635 L 267.01537,128.44635 L 269.47662,138.2201 L 276.12162,138.2201 L 265.62537,98.345101 L 257.46912,98.345101 L 246.13287,138.2201"
         style="fill:#003366;fill-opacity:1;fill-rule:evenodd;stroke:none"
         id="path2638" />
      <path
         d="M 278.88662,138.2201 L 285.25037,138.2201 L 285.25037,125.32135 L 288.76912,120.2901 L 298.43037,138.2201 L 305.63287,138.2201 L 292.90287,115.14885 L 304.41037,98.345101 L 297.42537,98.345101 L 285.36787,115.71135 L 285.25037,115.71135 L 285.25037,98.345101 L 278.88662,98.345101 L 278.88662,138.2201"
         style="fill:#003366;fill-opacity:1;fill-rule:nonzero;stroke:none"
         id="path2640" />
      <path
         d="M 307.33662,98.345101 L 307.33662,126.43885 C 307.33662,135.64885 311.91787,139.00135 319.57037,139.00135 C 327.16037,139.00135 331.74287,135.64885 331.74287,126.43885 L 331.74287,98.345101 L 325.37537,98.345101 L 325.37537,126.93885 C 325.37537,131.96135 323.36787,134.19635 319.57037,134.19635 C 315.71912,134.19635 313.70662,131.96135 313.70662,126.93885 L 313.70662,98.345101 L 307.33662,98.345101"
         style="fill:#003366;fill-opacity:1;fill-rule:nonzero;stroke:none"
         id="path2642" />
      <path
         d="M 337.08662,138.2201 L 358.86787,138.2201 L 358.86787,132.8526 L 343.45662,132.8526 L 343.45662,98.345101 L 337.08662,98.345101 L 337.08662,138.2201"
         style="fill:#003366;fill-opacity:1;fill-rule:nonzero;stroke:none"
         id="path2644" />
      <path
         d="M 363.98787,138.2201 L 370.35162,138.2201 L 370.35162,103.70385 L 379.68037,103.70385 L 379.68037,98.345101 L 354.49287,98.345101 L 354.49287,103.70385 L 363.98787,103.70385 L 363.98787,138.2201"
         style="fill:#003366;fill-opacity:1;fill-rule:nonzero;stroke:none"
         id="path2646" />
      <path
         d="M 396.86787,94.992601 L 402.23162,94.992601 L 402.23162,88.953851 L 396.86787,88.953851 L 396.86787,94.992601 z M 387.60162,94.992601 L 392.95662,94.992601 L 392.95662,88.953851 L 387.60162,88.953851 L 387.60162,94.992601 z M 389.89037,123.3601 L 394.63662,103.70385 L 394.74662,103.70385 L 399.32787,123.3601 L 389.89037,123.3601 z M 379.50412,138.2201 L 386.14912,138.2201 L 388.71537,128.44635 L 400.38662,128.44635 L 402.84412,138.2201 L 409.48787,138.2201 L 398.99287,98.345101 L 390.83662,98.345101 L 379.50412,138.2201"
         style="fill:#003366;fill-opacity:1;fill-rule:evenodd;stroke:none"
         id="path2648" />
      <path
         d="M 418.78537,138.2201 L 425.15662,138.2201 L 425.15662,103.70385 L 434.47662,103.70385 L 434.47662,98.345101 L 409.29662,98.345101 L 409.29662,103.70385 L 418.78537,103.70385 L 418.78537,138.2201"
         style="fill:#003366;fill-opacity:1;fill-rule:nonzero;stroke:none"
         id="path2650" />
      <path
         d="M 225.99287,83.008851 L 232.36287,83.008851 L 232.36287,48.492601 L 241.68412,48.492601 L 241.68412,43.133851 L 216.50412,43.133851 L 216.50412,48.492601 L 225.99287,48.492601 L 225.99287,83.008851"
         style="fill:#003366;fill-opacity:1;fill-rule:nonzero;stroke:none"
         id="path2652" />
      <path
         d="M 245.30912,83.008851 L 267.31287,83.008851 L 267.31287,77.648851 L 251.67537,77.648851 L 251.67537,64.915101 L 265.97287,64.915101 L 265.97287,59.555101 L 251.67537,59.555101 L 251.67537,48.492601 L 266.86287,48.492601 L 266.86287,43.133851 L 245.30912,43.133851 L 245.30912,83.008851"
         style="fill:#003366;fill-opacity:1;fill-rule:nonzero;stroke:none"
         id="path2654" />
      <path
         d="M 290.30537,68.711351 L 290.30537,69.383851 C 290.30537,73.071351 289.69162,78.992601 284.38662,78.992601 C 279.69537,78.992601 277.57412,75.751351 277.57412,62.907601 C 277.57412,50.055101 279.69537,47.157601 284.38662,47.157601 C 288.96162,46.985101 290.08162,51.227601 290.08162,54.915101 L 290.08162,55.586351 L 296.44537,55.586351 L 296.44537,54.860101 C 296.44537,50.727601 295.77787,42.352601 284.44537,42.352601 C 274.33162,42.352601 271.20662,48.828851 271.20662,63.071351 C 271.20662,77.313851 274.33162,83.790101 284.38662,83.790101 C 293.76537,83.790101 296.67162,76.758851 296.67162,69.547601 L 296.67162,68.711351 L 290.30537,68.711351"
         style="fill:#003366;fill-opacity:1;fill-rule:nonzero;stroke:none"
         id="path2656" />
      <path
         d="M 301.10912,83.008851 L 307.47662,83.008851 L 307.47662,64.470101 L 319.20287,64.470101 L 319.20287,83.008851 L 325.57037,83.008851 L 325.57037,43.133851 L 319.20287,43.133851 L 319.20287,59.102601 L 307.47662,59.102601 L 307.47662,43.133851 L 301.10912,43.133851 L 301.10912,83.008851"
         style="fill:#003366;fill-opacity:1;fill-rule:nonzero;stroke:none"
         id="path2658" />
      <path
         d="M 332.13662,83.008851 L 338.16787,83.008851 L 338.16787,52.516351 L 338.28162,52.516351 L 349.84037,83.008851 L 357.60162,83.008851 L 357.60162,43.133851 L 351.57037,43.133851 L 351.57037,72.845101 L 351.46162,72.845101 L 339.90287,43.133851 L 332.13662,43.133851 L 332.13662,83.008851"
         style="fill:#003366;fill-opacity:1;fill-rule:nonzero;stroke:none"
         id="path2660" />
      <path
         d="M 363.90287,83.008851 L 370.27037,83.008851 L 370.27037,43.133851 L 363.90287,43.133851 L 363.90287,83.008851 z"
         style="fill:#003366;fill-opacity:1;fill-rule:nonzero;stroke:none"
         id="path2662" />
      <path
         d="M 375.10912,70.672601 L 375.10912,71.617601 C 375.10912,77.203851 377.34787,83.790101 387.22662,83.790101 C 395.26912,83.790101 400.40662,80.273851 400.40662,71.782601 C 400.40662,66.313851 397.95287,63.235101 392.30912,61.227601 L 388.00787,59.665101 C 383.76537,58.047601 382.03537,56.313851 382.03537,52.907601 C 382.03537,48.665101 384.66037,47.157601 387.39412,47.157601 C 391.35912,47.157601 392.98037,49.273851 392.98037,52.907601 L 392.98037,53.742601 L 399.34412,53.742601 L 399.34412,52.852601 C 399.34412,48.720101 398.28537,42.352601 388.06662,42.352601 C 380.58162,42.352601 375.66787,46.376351 375.66787,53.633851 C 375.66787,59.328851 378.18037,62.345101 383.99287,64.578851 L 388.34412,66.086351 C 391.91787,67.148851 394.03912,68.992601 394.03912,73.180101 C 394.03912,76.141351 392.03162,78.992601 388.00787,78.992601 C 383.60162,78.992601 381.48037,76.532601 381.48037,71.672601 L 381.48037,70.672601 L 375.10912,70.672601"
         style="fill:#003366;fill-opacity:1;fill-rule:nonzero;stroke:none"
         id="path2664" />
      <path
         d="M 423.66412,68.711351 L 423.66412,69.383851 C 423.66412,73.071351 423.05037,78.992601 417.74662,78.992601 C 413.05537,78.992601 410.93412,75.751351 410.93412,62.907601 C 410.93412,50.055101 413.05537,47.157601 417.74662,47.157601 C 422.32787,46.985101 423.44162,51.227601 423.44162,54.915101 L 423.44162,55.586351 L 429.80912,55.586351 L 429.80912,54.860101 C 429.80912,50.727601 429.13662,42.352601 417.80537,42.352601 C 407.69912,42.352601 404.56662,48.828851 404.56662,63.071351 C 404.56662,77.313851 407.69912,83.790101 417.74662,83.790101 C 427.13287,83.790101 430.03537,76.758851 430.03537,69.547601 L 430.03537,68.711351 L 423.66412,68.711351"
         style="fill:#003366;fill-opacity:1;fill-rule:nonzero;stroke:none"
         id="path2666" />
      <path
         d="M 434.47287,83.008851 L 440.83662,83.008851 L 440.83662,64.470101 L 452.56287,64.470101 L 452.56287,83.008851 L 458.93037,83.008851 L 458.93037,43.133851 L 452.56287,43.133851 L 452.56287,59.102601 L 440.83662,59.102601 L 440.83662,43.133851 L 434.47287,43.133851 L 434.47287,83.008851"
         style="fill:#003366;fill-opacity:1;fill-rule:nonzero;stroke:none"
         id="path2668" />
      <path
         d="M 465.50037,83.008851 L 487.50412,83.008851 L 487.50412,77.648851 L 471.86287,77.648851 L 471.86287,64.915101 L 486.16037,64.915101 L 486.16037,59.555101 L 471.86287,59.555101 L 471.86287,48.492601 L 487.05537,48.492601 L 487.05537,43.133851 L 465.50037,43.133851 L 465.50037,83.008851"
         style="fill:#003366;fill-opacity:1;fill-rule:nonzero;stroke:none"
         id="path2670" />
    </g>
  </g>
</svg>
